<svg width="20" height="16" viewBox="0 0 20 16" fill="none" xmlns="http://www.w3.org/2000/svg">
    <path d="M18.5715 6.51723H4.87799L8.15352 3.07842C8.28996 2.94007 8.39879 2.77459 8.47365 2.59162C8.54852 2.40865 8.58792 2.21186 8.58957 2.01273C8.59122 1.8136 8.55508 1.61612 8.48325 1.43181C8.41142 1.24751 8.30535 1.08006 8.17123 0.939252C8.0371 0.798441 7.87761 0.687083 7.70205 0.611677C7.5265 0.536271 7.3384 0.498326 7.14872 0.500057C6.95905 0.501787 6.7716 0.543158 6.59732 0.621756C6.42304 0.700354 6.26541 0.814604 6.13364 0.957841L0.419673 6.95664C0.286643 7.09595 0.181098 7.26144 0.109083 7.44364C0.0370689 7.62584 0 7.82117 0 8.01843C0 8.21569 0.0370689 8.41101 0.109083 8.59321C0.181098 8.77541 0.286643 8.94091 0.419673 9.08022L6.13364 15.079C6.40305 15.3522 6.76389 15.5034 7.13844 15.4999C7.51298 15.4965 7.87127 15.3388 8.13612 15.0607C8.40098 14.7827 8.55121 14.4065 8.55446 14.0133C8.55772 13.6201 8.41373 13.2413 8.15352 12.9584L4.87799 9.51663H18.5715C18.9504 9.51663 19.3137 9.35862 19.5816 9.07738C19.8495 8.79613 20 8.41467 20 8.01693C20 7.61918 19.8495 7.23773 19.5816 6.95648C19.3137 6.67523 18.9504 6.51723 18.5715 6.51723Z" fill="white"/>
</svg>