<svg width="16" height="17" viewBox="0 0 16 17" fill="none" xmlns="http://www.w3.org/2000/svg">
<g id="dots-vertical-outline">
<g id="Vector">
<path d="M8.00039 3.7C8.88405 3.7 9.60039 2.98366 9.60039 2.1C9.60039 1.21634 8.88405 0.5 8.00039 0.5C7.11674 0.5 6.40039 1.21634 6.40039 2.1C6.40039 2.98366 7.11674 3.7 8.00039 3.7Z" fill="#6B7280"/>
<path d="M8.00039 10.1C8.88405 10.1 9.60039 9.38366 9.60039 8.5C9.60039 7.61634 8.88405 6.9 8.00039 6.9C7.11674 6.9 6.40039 7.61634 6.40039 8.5C6.40039 9.38366 7.11674 10.1 8.00039 10.1Z" fill="#6B7280"/>
<path d="M8.00039 16.5C8.88405 16.5 9.60039 15.7837 9.60039 14.9C9.60039 14.0163 8.88405 13.3 8.00039 13.3C7.11674 13.3 6.40039 14.0163 6.40039 14.9C6.40039 15.7837 7.11674 16.5 8.00039 16.5Z" fill="#6B7280"/>
</g>
</g>
</svg>
