<svg width="16" height="16" viewBox="0 0 16 16" fill="none" xmlns="http://www.w3.org/2000/svg">
<g id="bell-on" clip-path="url(#clip0_2674_109370)">
<circle id="Ellipse 1143" cx="8" cy="8" r="8" fill="#DEF7EC"/>
<path id="Vector" d="M11.0788 8.89932C11.1819 8.89935 11.2821 8.86747 11.3643 8.80853C11.4465 8.74958 11.5063 8.66678 11.5345 8.57266L12.4819 5.42306C12.502 5.3561 12.5054 5.28563 12.492 5.21718C12.4785 5.14874 12.4485 5.0842 12.4043 5.02864C12.3602 4.97307 12.303 4.92801 12.2374 4.89698C12.1718 4.86595 12.0995 4.84981 12.0262 4.84983H5.75944L5.4776 3.83521C5.45093 3.73914 5.39153 3.65415 5.30867 3.59351C5.22581 3.53288 5.12416 3.49999 5.01956 3.5H3.97368C3.84805 3.5 3.72757 3.5474 3.63874 3.63179C3.54991 3.71617 3.5 3.83061 3.5 3.94994C3.5 4.06928 3.54991 4.18372 3.63874 4.2681C3.72757 4.35248 3.84805 4.39989 3.97368 4.39989H4.65483L4.93903 5.41451V5.41901V5.42306L5.88639 8.57266L6.23975 9.9162C6.00582 10.0147 5.80423 10.1714 5.65629 10.3698C5.50834 10.5681 5.41951 10.8007 5.3992 11.043C5.37888 11.2853 5.42782 11.5283 5.54085 11.7464C5.65388 11.9645 5.82681 12.1495 6.04138 12.282C6.25594 12.4144 6.50418 12.4894 6.75988 12.499C7.01558 12.5085 7.26925 12.4523 7.4941 12.3363C7.71896 12.2202 7.90666 12.0487 8.03738 11.8397C8.1681 11.6307 8.23699 11.3921 8.23677 11.149C8.2352 10.9954 8.20572 10.8432 8.14962 10.6991H9.27129C9.21519 10.8432 9.1857 10.9954 9.18413 11.149C9.18413 11.416 9.26747 11.677 9.42362 11.899C9.57976 12.1209 9.8017 12.294 10.0614 12.3961C10.321 12.4983 10.6067 12.525 10.8824 12.4729C11.158 12.4209 11.4112 12.2923 11.61 12.1035C11.8087 11.9147 11.9441 11.6742 11.9989 11.4124C12.0537 11.1505 12.0256 10.8791 11.918 10.6325C11.8105 10.3858 11.6283 10.175 11.3946 10.0267C11.161 9.87838 10.8862 9.79921 10.6052 9.79921H7.18521L6.94837 8.89932H11.0788ZM7.28942 11.149C7.28942 11.238 7.26164 11.325 7.20959 11.399C7.15754 11.473 7.08356 11.5307 6.99701 11.5647C6.91046 11.5988 6.81522 11.6077 6.72333 11.5903C6.63145 11.573 6.54705 11.5301 6.4808 11.4672C6.41456 11.4043 6.36944 11.3241 6.35117 11.2368C6.33289 11.1495 6.34227 11.0591 6.37812 10.9769C6.41397 10.8946 6.47469 10.8244 6.55258 10.7749C6.63048 10.7255 6.72206 10.6991 6.81574 10.6991C6.94137 10.6991 7.06185 10.7465 7.15068 10.8309C7.23951 10.9153 7.28942 11.0297 7.28942 11.149ZM10.6052 11.599C10.5115 11.599 10.4199 11.5726 10.342 11.5232C10.2641 11.4737 10.2034 11.4034 10.1675 11.3212C10.1317 11.239 10.1223 11.1485 10.1406 11.0613C10.1589 10.974 10.204 10.8938 10.2702 10.8309C10.3365 10.768 10.4209 10.7251 10.5128 10.7077C10.6046 10.6904 10.6999 10.6993 10.7864 10.7333C10.873 10.7674 10.947 10.8251 10.999 10.8991C11.0511 10.9731 11.0788 11.0601 11.0788 11.149C11.0788 11.2684 11.0289 11.3828 10.9401 11.4672C10.8513 11.5516 10.7308 11.599 10.6052 11.599Z" fill="#15A033"/>
</g>
<defs>
<clipPath id="clip0_2674_109370">
<rect width="16" height="16" fill="white"/>
</clipPath>
</defs>
</svg>
