<svg width="16" height="17" viewBox="0 0 16 17" fill="none" xmlns="http://www.w3.org/2000/svg">
<g clip-path="url(#clip0_1995_126475)">
<circle cx="8" cy="8.64062" r="8" fill="#DEF7EC"/>
<path d="M11.3499 11.7655H4.81665C4.60006 11.7655 4.39234 11.6733 4.23919 11.5092C4.08604 11.3451 4 11.1226 4 10.8905V9.79679C4 9.68076 4.04302 9.56948 4.1196 9.48744C4.19617 9.40539 4.30003 9.3593 4.40833 9.3593C4.57077 9.3593 4.72656 9.29016 4.84142 9.16709C4.95628 9.04403 5.02081 8.87711 5.02081 8.70306C5.02081 8.52902 4.95628 8.3621 4.84142 8.23903C4.72656 8.11597 4.57077 8.04683 4.40833 8.04683C4.30003 8.04683 4.19617 8.00073 4.1196 7.91869C4.04302 7.83664 4 7.72537 4 7.60934V6.51561C4 6.28355 4.08604 6.06099 4.23919 5.8969C4.39234 5.73281 4.60006 5.64062 4.81665 5.64062H11.3499C11.5664 5.64062 11.7742 5.73281 11.9273 5.8969C12.0805 6.06099 12.1665 6.28355 12.1665 6.51561V7.60934C12.1665 7.72537 12.1235 7.83664 12.0469 7.91869C11.9703 8.00073 11.8665 8.04683 11.7582 8.04683C11.5957 8.04683 11.4399 8.11597 11.3251 8.23903C11.2102 8.3621 11.1457 8.52902 11.1457 8.70306C11.1457 8.87711 11.2102 9.04403 11.3251 9.16709C11.4399 9.29016 11.5957 9.3593 11.7582 9.3593C11.8665 9.3593 11.9703 9.40539 12.0469 9.48744C12.1235 9.56948 12.1665 9.68076 12.1665 9.79679V10.8905C12.1665 11.1226 12.0805 11.3451 11.9273 11.5092C11.7742 11.6733 11.5664 11.7655 11.3499 11.7655Z" fill="#15A033"/>
</g>
<defs>
<clipPath id="clip0_1995_126475">
<rect width="16" height="16" fill="white" transform="translate(0 0.640625)"/>
</clipPath>
</defs>
</svg>