<svg viewBox="0 0 16 16" fill="none" xmlns="http://www.w3.org/2000/svg">
    <path d="M12.7996 9.4119C12.373 9.41229 11.9509 9.50088 11.5582 9.67241C11.1655 9.84395 10.8103 10.0949 10.5136 10.4105L6.33666 8.15922C6.37735 7.95195 6.39818 7.74106 6.39884 7.52959C6.39363 7.40505 6.38142 7.28092 6.36226 7.15783L10.3563 5.39599C10.8407 5.98274 11.5105 6.37509 12.248 6.50413C12.9855 6.63317 13.7436 6.49065 14.3891 6.10161C15.0347 5.71256 15.5264 5.10186 15.778 4.37675C16.0296 3.65163 16.0249 2.85847 15.7649 2.13653C15.5048 1.4146 15.0059 0.810058 14.3558 0.429067C13.7057 0.0480756 12.946 -0.0850044 12.2101 0.0531961C11.4742 0.191397 10.8091 0.592042 10.3316 1.18478C9.85416 1.77751 9.59485 2.52444 9.59923 3.29439C9.60434 3.4205 9.61655 3.5462 9.6358 3.67085L5.64264 5.42799C5.22846 4.91817 4.67385 4.54956 4.05197 4.3708C3.4301 4.19204 2.77018 4.21152 2.15929 4.42668C1.54839 4.64184 1.01522 5.04256 0.630122 5.57599C0.24502 6.10941 0.0260799 6.75046 0.0021876 7.41457C-0.0217046 8.07868 0.150573 8.73465 0.496292 9.29592C0.842011 9.8572 1.34493 10.2974 1.93869 10.5585C2.53245 10.8196 3.18916 10.8892 3.82218 10.7583C4.45519 10.6274 5.03477 10.302 5.48444 9.82507L9.65958 12.0763C9.6195 12.2837 9.59929 12.4945 9.59923 12.706C9.59923 13.3575 9.78692 13.9943 10.1386 14.536C10.4903 15.0777 10.9901 15.4999 11.5749 15.7493C12.1597 15.9986 12.8032 16.0638 13.424 15.9367C14.0448 15.8096 14.615 15.4959 15.0626 15.0352C15.5102 14.5745 15.815 13.9876 15.9385 13.3486C16.062 12.7096 15.9986 12.0473 15.7564 11.4454C15.5142 10.8435 15.104 10.329 14.5777 9.96705C14.0514 9.6051 13.4326 9.4119 12.7996 9.4119V9.4119ZM12.7996 1.88265C13.0709 1.88265 13.3361 1.96545 13.5616 2.12057C13.7872 2.2757 13.963 2.49618 14.0668 2.75414C14.1706 3.0121 14.1978 3.29595 14.1449 3.5698C14.0919 3.84365 13.9613 4.0952 13.7695 4.29264C13.5777 4.49007 13.3333 4.62452 13.0672 4.679C12.8011 4.73347 12.5254 4.70551 12.2747 4.59866C12.0241 4.49181 11.8099 4.31086 11.6592 4.07871C11.5085 3.84655 11.428 3.5736 11.428 3.29439C11.428 2.91997 11.5725 2.56089 11.8297 2.29614C12.087 2.03139 12.4358 1.88265 12.7996 1.88265V1.88265ZM3.19845 8.94133C2.92718 8.94133 2.662 8.85853 2.43644 8.70341C2.21088 8.54828 2.03508 8.3278 1.93127 8.06984C1.82745 7.81188 1.80029 7.52803 1.85322 7.25418C1.90614 6.98033 2.03677 6.72878 2.22859 6.53134C2.42041 6.33391 2.66481 6.19946 2.93087 6.14498C3.19693 6.09051 3.47271 6.11847 3.72334 6.22532C3.97397 6.33217 4.18818 6.51312 4.33889 6.74527C4.48961 6.97743 4.57005 7.25038 4.57005 7.52959C4.56844 7.7516 4.51546 7.97001 4.41552 8.16675C4.41552 8.1724 4.40729 8.17522 4.40454 8.17993V8.19499C4.28775 8.41992 4.11394 8.60809 3.90158 8.7395C3.68922 8.87091 3.44624 8.94066 3.19845 8.94133V8.94133ZM12.7996 14.1177C12.4358 14.1177 12.087 13.9689 11.8297 13.7042C11.5725 13.4394 11.428 13.0804 11.428 12.706C11.4294 12.4868 11.4811 12.271 11.5789 12.0763C11.5789 12.0688 11.589 12.0631 11.5935 12.0556V12.0406C11.708 11.8201 11.8772 11.6349 12.084 11.5039C12.2908 11.3728 12.5276 11.3006 12.7704 11.2946C13.0131 11.2886 13.2531 11.3491 13.4657 11.4698C13.6783 11.5905 13.856 11.7672 13.9806 11.9817C14.1051 12.1963 14.1721 12.441 14.1747 12.6909C14.1773 12.9408 14.1154 13.187 13.9953 13.4042C13.8752 13.6214 13.7012 13.8019 13.4911 13.9273C13.2811 14.0526 13.0424 14.1183 12.7996 14.1177Z" fill="#1F2A37"/>
</svg>