<svg width="7" height="10" viewBox="0 0 7 10" fill="none" xmlns="http://www.w3.org/2000/svg">
<path d="M1.26136 9.10795C0.950758 9.10795 0.683712 8.99811 0.460227 8.77841C0.236742 8.55492 0.125 8.28598 0.125 7.97159C0.125 7.66098 0.236742 7.39583 0.460227 7.17614C0.683712 6.95265 0.950758 6.84091 1.26136 6.84091C1.57197 6.84091 1.83902 6.95265 2.0625 7.17614C2.28598 7.39583 2.39773 7.66098 2.39773 7.97159C2.39773 8.17992 2.3447 8.37121 2.23864 8.54545C2.13636 8.71591 2 8.85227 1.82955 8.95455C1.65909 9.05682 1.4697 9.10795 1.26136 9.10795ZM1.26136 2.75568C0.950758 2.75568 0.683712 2.64394 0.460227 2.42045C0.236742 2.19697 0.125 1.92992 0.125 1.61932C0.125 1.30871 0.236742 1.04356 0.460227 0.823863C0.683712 0.600378 0.950758 0.488636 1.26136 0.488636C1.57197 0.488636 1.83902 0.600378 2.0625 0.823863C2.28598 1.04356 2.39773 1.30871 2.39773 1.61932C2.39773 1.82765 2.3447 2.01894 2.23864 2.19318C2.13636 2.36364 2 2.5 1.82955 2.60227C1.65909 2.70455 1.4697 2.75568 1.26136 2.75568ZM5.79261 9.10795C5.48201 9.10795 5.21496 8.99811 4.99148 8.77841C4.76799 8.55492 4.65625 8.28598 4.65625 7.97159C4.65625 7.66098 4.76799 7.39583 4.99148 7.17614C5.21496 6.95265 5.48201 6.84091 5.79261 6.84091C6.10322 6.84091 6.37027 6.95265 6.59375 7.17614C6.81723 7.39583 6.92898 7.66098 6.92898 7.97159C6.92898 8.17992 6.87595 8.37121 6.76989 8.54545C6.66761 8.71591 6.53125 8.85227 6.3608 8.95455C6.19034 9.05682 6.00095 9.10795 5.79261 9.10795ZM5.79261 2.75568C5.48201 2.75568 5.21496 2.64394 4.99148 2.42045C4.76799 2.19697 4.65625 1.92992 4.65625 1.61932C4.65625 1.30871 4.76799 1.04356 4.99148 0.823863C5.21496 0.600378 5.48201 0.488636 5.79261 0.488636C6.10322 0.488636 6.37027 0.600378 6.59375 0.823863C6.81723 1.04356 6.92898 1.30871 6.92898 1.61932C6.92898 1.82765 6.87595 2.01894 6.76989 2.19318C6.66761 2.36364 6.53125 2.5 6.3608 2.60227C6.19034 2.70455 6.00095 2.75568 5.79261 2.75568Z" fill="#666C79"/>
</svg>
