<svg width="16" height="16" viewBox="0 0 16 16" fill="none" xmlns="http://www.w3.org/2000/svg">
<path fill-rule="evenodd" clip-rule="evenodd" d="M8 16C10.1217 16 12.1566 15.1571 13.6569 13.6569C15.1571 12.1566 16 10.1217 16 8C16 5.87827 15.1571 3.84344 13.6569 2.34315C12.1566 0.842855 10.1217 0 8 0C5.87827 0 3.84344 0.842855 2.34315 2.34315C0.842855 3.84344 0 5.87827 0 8C0 10.1217 0.842855 12.1566 2.34315 13.6569C3.84344 15.1571 5.87827 16 8 16Z" fill="#EC5962"/>
<path d="M6.00417 5.01176C6.26637 5.00948 6.51897 5.11027 6.70757 5.29243L8.00057 6.58543L9.29357 5.29243C9.48217 5.11027 9.73477 5.00948 9.99697 5.01176C10.2592 5.01403 10.51 5.1192 10.6954 5.30461C10.8808 5.49002 10.986 5.74083 10.9882 6.00303C10.9905 6.26523 10.8897 6.51783 10.7076 6.70643L9.41457 7.99943L10.7076 9.29243C10.8897 9.48103 10.9905 9.73363 10.9882 9.99583C10.986 10.258 10.8808 10.5088 10.6954 10.6942C10.51 10.8797 10.2592 10.9848 9.99697 10.9871C9.73477 10.9894 9.48217 10.8886 9.29357 10.7064L8.00057 9.41343L6.70757 10.7064C6.61532 10.8019 6.50498 10.8781 6.38297 10.9305C6.26097 10.9829 6.12975 11.0105 5.99697 11.0117C5.86419 11.0128 5.73251 10.9875 5.60962 10.9373C5.48672 10.887 5.37507 10.8127 5.28117 10.7188C5.18728 10.6249 5.11303 10.5133 5.06275 10.3904C5.01247 10.2675 4.98717 10.1358 4.98832 10.003C4.98947 9.87025 5.01706 9.73903 5.06947 9.61703C5.12188 9.49502 5.19806 9.38468 5.29357 9.29243L6.58657 7.99943L5.29357 6.70643C5.11141 6.51783 5.01062 6.26523 5.0129 6.00303C5.01517 5.74083 5.12034 5.49002 5.30575 5.30461C5.49116 5.1192 5.74197 5.01403 6.00417 5.01176Z" fill="white"/>
</svg>