<svg xmlns="http://www.w3.org/2000/svg" width="16" height="16" viewBox="0 0 16 16" fill="none">
  <g clip-path="url(#clip0_2674_109322)">
    <circle cx="8" cy="8" r="8" fill="#FFF8F1"/>
    <path d="M10.5665 8.54308V7.59573C10.5668 6.95544 10.362 6.33375 9.98508 5.83119C9.60817 5.32863 9.08124 4.97458 8.4895 4.82629C8.49401 4.80792 8.49751 4.78929 8.5 4.7705V3.52631C8.5 3.38672 8.44732 3.25285 8.35355 3.15415C8.25979 3.05545 8.13261 3 8 3C7.86739 3 7.74021 3.05545 7.64645 3.15415C7.55268 3.25285 7.5 3.38672 7.5 3.52631V4.7705C7.50249 4.78929 7.50599 4.80792 7.5105 4.82629C6.91876 4.97458 6.39183 5.32863 6.01492 5.83119C5.63801 6.33375 5.43317 6.95544 5.4335 7.59573V8.54308C5.4335 9.79885 4.5 10.1125 4.5 10.7404C4.5 11.0525 4.5 11.3683 4.769 11.3683H11.231C11.5 11.3683 11.5 11.0525 11.5 10.7404C11.5 10.1125 10.5665 9.79885 10.5665 8.54308Z" fill="#FF8A4C"/>
    <path d="M5 5.05261C4.8674 5.05258 4.74025 4.99711 4.6465 4.8984L4.1465 4.37209C4.05542 4.27283 4.00503 4.13988 4.00616 4.00188C4.0073 3.86389 4.05989 3.73188 4.15259 3.6343C4.2453 3.53672 4.3707 3.48137 4.5018 3.48017C4.6329 3.47897 4.7592 3.53202 4.8535 3.62789L5.3535 4.1542C5.42341 4.2278 5.47101 4.32157 5.49029 4.42365C5.50958 4.52573 5.49968 4.63153 5.46184 4.72769C5.42401 4.82385 5.35994 4.90604 5.27773 4.96387C5.19553 5.0217 5.09888 5.05258 5 5.05261Z" fill="#FF8A4C"/>
    <path d="M4 7.15783H3.5C3.36739 7.15783 3.24021 7.10238 3.14645 7.00368C3.05268 6.90498 3 6.77111 3 6.63153C3 6.49194 3.05268 6.35807 3.14645 6.25937C3.24021 6.16067 3.36739 6.10522 3.5 6.10522H4C4.13261 6.10522 4.25979 6.16067 4.35355 6.25937C4.44732 6.35807 4.5 6.49194 4.5 6.63153C4.5 6.77111 4.44732 6.90498 4.35355 7.00368C4.25979 7.10238 4.13261 7.15783 4 7.15783Z" fill="#FF8A4C"/>
    <path d="M11 5.0526C10.9011 5.05258 10.8045 5.0217 10.7223 4.96387C10.6401 4.90603 10.576 4.82384 10.5382 4.72769C10.5003 4.63153 10.4904 4.52573 10.5097 4.42365C10.529 4.32157 10.5766 4.2278 10.6465 4.15419L11.1465 3.62789C11.1926 3.57762 11.2478 3.53752 11.3088 3.50994C11.3698 3.48236 11.4354 3.46784 11.5018 3.46723C11.5682 3.46662 11.634 3.47994 11.6955 3.5064C11.7569 3.53287 11.8128 3.57195 11.8597 3.62136C11.9066 3.67078 11.9438 3.72954 11.9689 3.79422C11.9941 3.8589 12.0067 3.92821 12.0061 3.99809C12.0055 4.06797 11.9918 4.13704 11.9656 4.20125C11.9393 4.26546 11.9013 4.32354 11.8535 4.37209L11.3535 4.89839C11.2598 4.9971 11.1326 5.05257 11 5.0526Z" fill="#FF8A4C"/>
    <path d="M12.5 7.15783H12C11.8674 7.15783 11.7402 7.10238 11.6464 7.00368C11.5527 6.90498 11.5 6.77111 11.5 6.63153C11.5 6.49194 11.5527 6.35807 11.6464 6.25937C11.7402 6.16067 11.8674 6.10522 12 6.10522H12.5C12.6326 6.10522 12.7598 6.16067 12.8536 6.25937C12.9473 6.35807 13 6.49194 13 6.63153C13 6.77111 12.9473 6.90498 12.8536 7.00368C12.7598 7.10238 12.6326 7.15783 12.5 7.15783Z" fill="#FF8A4C"/>
    <path d="M6.4115 11.8946C6.54414 12.2225 6.76544 12.5021 7.04788 12.6987C7.33032 12.8952 7.66142 13 8 13C8.33858 13 8.66968 12.8952 8.95212 12.6987C9.23456 12.5021 9.45586 12.2225 9.5885 11.8946H6.4115Z" fill="#FF8A4C"/>
  </g>
  <defs>
    <clipPath id="clip0_2674_109322">
      <rect width="16" height="16" fill="white"/>
    </clipPath>
  </defs>
</svg>